<svg xmlns="http://www.w3.org/2000/svg" xmlns:xlink="http://www.w3.org/1999/xlink" id="Vrstva_1" width="500" height="500" x="0" style="enable-background:new 0 0 500 500" y="0" version="1.1" viewBox="0 0 500 500" xml:space="preserve"><g><g><circle style="fill:#0073be" cx="250" cy="250" r="250"/><g><path style="fill:#fff" d="M231.3,250.1c-22.8-23-22.8-60.3,0.2-83.2c22.9-22.9,60.2-23,83.2-0.2l53.1-53.1 c-52.3-52.1-137.2-52.1-189.4,0.2c-52.2,52.2-52.3,137.1-0.2,189.4L231.3,250.1z"/><path style="fill:#fff" d="M268.7,249.9c22.8,23,22.8,60.3-0.2,83.2c-22.9,22.9-60.2,23-83.2,0.2l-53.1,53.1 c52.3,52.1,137.2,52.1,189.4-0.2c52.2-52.2,52.3-137.1,0.2-189.4L268.7,249.9z"/></g></g></g></svg>